<?xml version="1.0" encoding="UTF-8"?>
<svg version="1.1" xmlns="http://www.w3.org/2000/svg" width="4167" height="4167">
<path d="M0 0 C1.33164373 0.00040031 1.33164373 0.00040031 2.69018936 0.00080872 C32.08527646 0.01186957 61.40294294 0.34981938 90.75 2.1875 C91.80419128 2.25302063 92.85838257 2.31854126 93.94451904 2.38604736 C194.35556896 8.69630938 293.3420541 24.15995283 493.83642578 79.84375 C497.5595368 81.12589614 501.29247212 82.37749478 505.02734375 83.625 C547.8311185 98.0102874 589.75518617 115.28102918 630.75 134.1875 C631.40659607 134.49022827 632.06319214 134.79295654 632.73968506 135.1048584 C660.85639056 148.08463699 688.78283001 161.49606669 715.84277344 176.57568359 C719.10769913 178.38581455 722.38515866 180.17241426 725.6640625 181.95703125 C740.58451977 190.09162554 755.27517743 198.52578539 769.78417969 207.38037109 C772.6968018 209.15508536 775.61672366 210.9171223 778.5390625 212.67578125 C815.2903594 234.83571234 850.92156546 258.83162623 885.36914062 284.42431641 C887.79719498 286.222451 890.23320168 288.00926718 892.671875 289.79296875 C901.60742418 296.33297358 910.43263689 302.97475232 919.09375 309.87402344 C920.76391997 311.19853913 922.4427693 312.51115716 924.125 313.8203125 C936.39254208 323.37436944 948.37545856 333.27427305 960.21459961 343.35327148 C963.56379611 346.20058934 966.95566913 348.98748975 970.375 351.75 C975.07355951 355.57013317 979.53213766 359.60461256 983.984375 363.70703125 C986.75517601 366.19214232 989.60051362 368.54194333 992.5 370.875 C996.26886239 373.91681943 999.7394778 377.05880494 1003.10546875 380.53515625 C1004.75841603 382.19595601 1006.47251638 383.72372391 1008.25 385.25 C1013.4825075 389.76806898 1018.50027693 394.51304429 1023.53930664 399.24414062 C1026.09689811 401.6430883 1028.66144106 404.03383839 1031.23803711 406.41235352 C1042.21052225 416.57131313 1052.81194529 427.09417761 1063.37133789 437.6784668 C1065.84189645 440.15478543 1068.3170086 442.62649692 1070.79341221 445.09696865 C1073.19935353 447.49840454 1075.60145426 449.90366701 1078.00390625 452.30859375 C1078.88003067 453.18269394 1079.75615509 454.05679413 1080.65882874 454.9573822 C1085.05090921 459.36616819 1089.30272033 463.83459002 1093.34776306 468.56507874 C1095.05549475 470.54096464 1096.8717184 472.37398673 1098.75 474.1875 C1101.87410984 477.26995505 1104.77701088 480.46259772 1107.63671875 483.7890625 C1110.44736974 486.97896953 1113.34879414 490.08005891 1116.25 493.1875 C1120.84094198 498.11364134 1125.37171808 503.07026754 1129.75 508.1875 C1130.63791299 509.22144678 1131.52594505 510.25529133 1132.4140625 511.2890625 C1134.47252144 513.6866974 1136.52808576 516.08677913 1138.58203125 518.48828125 C1140.61571395 520.86536953 1142.6545022 523.23786621 1144.69921875 525.60546875 C1151.93023184 533.98763978 1159.00372863 542.49137709 1166.01074219 551.06152344 C1167.6940933 553.11916261 1169.3819474 555.17303703 1171.0703125 557.2265625 C1177.6958484 565.30764831 1184.11971975 573.52032523 1190.4375 581.84375 C1193.23737586 585.52814721 1196.07862294 589.178291 1198.93237305 592.82104492 C1209.91184565 606.84281957 1220.43001505 621.18599564 1230.6484375 635.77050781 C1232.60023439 638.55437339 1234.55998986 641.33217985 1236.53125 644.10229492 C1243.74172015 654.24338139 1250.74005026 664.51064611 1257.625 674.875 C1258.14602295 675.65808533 1258.6670459 676.44117065 1259.20385742 677.24798584 C1267.5484876 689.79391879 1275.78777282 702.39436236 1283.75 715.1875 C1284.37777344 716.19361328 1285.00554688 717.19972656 1285.65234375 718.23632812 C1310.52871996 758.16945835 1333.35030032 799.29498582 1354.75 841.1875 C1355.06666626 841.80645142 1355.38333252 842.42540283 1355.70959473 843.06311035 C1365.6411819 862.48485319 1375.02089066 882.10305572 1383.89550781 902.02978516 C1385.12507463 904.79036254 1386.36131669 907.54777044 1387.60449219 910.30224609 C1424.46220467 991.97052341 1453.08718047 1077.05390157 1514 1414.125 C1514.08308411 1415.35428223 1514.16616821 1416.58356445 1514.25177002 1417.85009766 C1514.49071835 1421.4296986 1514.72353379 1425.00963124 1514.953125 1428.58984375 C1515.01956207 1429.60727158 1515.08599915 1430.6246994 1515.15444946 1431.67295837 C1516.33998611 1450.71989112 1516.91328878 1469.75777568 1516.953125 1488.83984375 C1516.96010937 1490.93759174 1516.96715027 1493.03533954 1516.97424316 1495.13308716 C1516.99350022 1501.79706084 1516.99841926 1508.46100152 1517 1515.125 C1517.00058914 1516.26095989 1517.00117828 1517.39691978 1517.00178528 1518.5673027 C1517.01446262 1553.21389477 1516.67580929 1587.70773509 1513.97784424 1622.26721191 C1513.74947016 1625.194291 1513.53007788 1628.12194135 1513.31201172 1631.04980469 C1505.89352577 1729.29969771 1488.57957168 1827.00968912 1363.75 2175.1875 C1363.42839905 2175.84165894 1363.1067981 2176.49581787 1362.77545166 2177.1697998 C1354.63314368 2193.7248814 1346.34442615 2210.16123586 1337.36181641 2226.28027344 C1335.55168545 2229.54519913 1333.76508574 2232.82265866 1331.98046875 2236.1015625 C1323.84587446 2251.02201977 1315.41171461 2265.71267743 1306.55712891 2280.22167969 C1304.78241464 2283.1343018 1303.0203777 2286.05422366 1301.26171875 2288.9765625 C1282.44607555 2320.18319011 1262.39257193 2350.72570144 1241.10253906 2380.30664062 C1239.63239843 2382.35103836 1238.17169071 2384.40201082 1236.7109375 2386.453125 C1228.30233426 2398.21949589 1219.55936245 2409.7194344 1210.75 2421.1875 C1209.79922466 2422.42949271 1208.84867404 2423.67165751 1207.8984375 2424.9140625 C1199.03386059 2436.4907819 1190.0204322 2447.93292854 1180.75 2459.1875 C1179.29155659 2460.97907706 1177.83322483 2462.77074502 1176.375 2464.5625 C1171.241476 2470.83483002 1166.0059838 2477.01781331 1160.75 2483.1875 C1160.25032715 2483.77499023 1159.7506543 2484.36248047 1159.23583984 2484.96777344 C1153.49651965 2491.71197619 1147.71239716 2498.40130277 1141.76171875 2504.9609375 C1139.90265331 2507.01854391 1138.07071642 2509.09596763 1136.25 2511.1875 C1129.35605816 2519.09108092 1122.28419956 2526.83393249 1115.14990234 2534.52050781 C1113.00784197 2536.82867042 1110.87189642 2539.14221784 1108.74047852 2541.46020508 C1097.70178926 2553.40324435 1086.20493491 2564.88652183 1074.69555664 2576.37231445 C1071.85603827 2579.20608086 1069.02111178 2582.04439235 1066.18743992 2584.88400364 C1063.97147553 2587.10359983 1061.7531128 2589.32078674 1059.53404045 2591.53727531 C1058.48766999 2592.58298662 1057.44201968 2593.62941911 1056.39715767 2594.67663765 C1051.22558167 2599.85734063 1046.03637603 2604.96714981 1040.448349 2609.70323181 C1038.6314476 2611.29110859 1036.93909033 2612.96497666 1035.25 2614.6875 C1032.32532885 2617.65807406 1029.26380439 2620.39479119 1026.10546875 2623.11328125 C1023.73370283 2625.20185124 1021.42111633 2627.34282807 1019.11157227 2629.49951172 C1013.7295987 2634.52436148 1008.24149901 2639.29882227 1002.49609375 2643.91015625 C999.48679541 2646.40577635 996.61083194 2649.02537519 993.75 2651.6875 C989.17072425 2655.94283276 984.45713701 2659.96072923 979.5859375 2663.8828125 C976.49412094 2666.3954458 973.46569089 2668.9740464 970.4375 2671.5625 C965.44981914 2675.81082704 960.35877855 2679.90118733 955.18774414 2683.92358398 C951.37812 2686.89185727 947.61918133 2689.91394509 943.88500977 2692.9765625 C936.05719977 2699.39626043 928.06481441 2705.54083388 919.93066406 2711.56591797 C917.58978775 2713.30663679 915.25885458 2715.06005339 912.9296875 2716.81640625 C861.85921478 2755.31935682 808.33807814 2790.55513252 752.75 2822.1875 C750.8059436 2823.29939877 748.86193192 2824.41137573 746.91796875 2825.5234375 C700.49888885 2852.00021407 652.76567729 2875.94725848 603.78594971 2897.29876709 C601.87409532 2898.1333299 599.96381593 2898.97136707 598.05419922 2899.81103516 C553.3165112 2919.45274033 507.39340007 2936.4581692 460.9130249 2951.48754883 C458.76887751 2952.18139127 456.62582325 2952.87852785 454.48291016 2953.57617188 C377.9869762 2978.42925338 299.30029739 2996.38887521 219.88290405 3008.92279053 C217.78959963 3009.25350733 215.69679706 3009.58742525 213.60464478 3009.925354 C181.10753863 3015.14374958 148.1664725 3017.50060806 115.35557556 3019.82418823 C112.79430349 3020.0057194 110.23314566 3020.18880572 107.67199707 3020.37207031 C-2.89147204 3028.26406077 -113.61235 3034.26516313 -224.375 3038.5 C-225.44915035 3038.54112789 -226.5233007 3038.58225578 -227.63000107 3038.62462997 C-265.15397184 3040.05730682 -302.67212652 3041.1862114 -340.21990967 3041.71972656 C-343.05021538 3041.7606725 -345.88047469 3041.80445732 -348.71073914 3041.84814835 C-469.65809293 3043.70805932 -469.65809293 3043.70805932 -496.25 3034.1875 C-496.36943972 3041.10173266 -496.23940169 3047.97267612 -495.89912033 3054.87763214 C-495.2657293 3067.74521366 -495.0728065 3080.58741 -495.046875 3093.46875 C-495.03985224 3095.64048279 -495.03276543 3097.81221537 -495.02561951 3099.98394775 C-495.00622332 3106.88513487 -495.00118545 3113.78628837 -495 3120.6875 C-494.99955814 3121.86337173 -494.99911629 3123.03924347 -494.99866104 3124.25074768 C-494.99168217 3159.66249937 -495.28019093 3194.88055529 -498.25 3230.1875 C-498.42887845 3232.3834499 -498.60758443 3234.57941386 -498.78613281 3236.77539062 C-507.0222708 3336.68931378 -524.90979851 3435.73990773 -602.25 3668.1875 C-602.68876465 3669.1254541 -603.1275293 3670.0634082 -603.57958984 3671.02978516 C-615.21921513 3695.67215858 -629.47137985 3717.47407299 -648.25 3737.1875 C-649.43142578 3738.46560547 -649.43142578 3738.46560547 -650.63671875 3739.76953125 C-679.50986353 3770.07440222 -722.55923432 3783.11684574 -763.25 3786.1875 C-763.96833008 3786.24389648 -764.68666016 3786.30029297 -765.42675781 3786.35839844 C-788.07590399 3788.05282327 -810.84678797 3787.34289396 -833.49707031 3786.08203125 C-835.94806047 3785.95041303 -838.39905586 3785.81889216 -840.85005569 3785.68745422 C-881.58359253 3783.47141564 -922.29629378 3780.8612443 -963.010993 3778.3280983 C-970.36281955 3777.87076182 -977.71471562 3777.41454994 -985.0666275 3776.95858765 C-1009.47404068 3775.44475084 -1033.88130411 3773.92853303 -1058.28836331 3772.40899956 C-1060.24357269 3772.28727232 -1060.24357269 3772.28727232 -1062.23828125 3772.16308594 C-1063.5433895 3772.08183216 -1064.84849774 3772.00057838 -1066.19315472 3771.91686237 C-1087.42438233 3770.59519064 -1108.65596278 3769.27930558 -1129.88770923 3767.96600044 C-1151.83253887 3766.60852258 -1173.77710132 3765.246796 -1195.72139478 3763.88067722 C-1207.98500721 3763.11730232 -1220.24871767 3762.35559704 -1232.5127182 3761.59848022 C-1242.92646103 3760.95555426 -1253.33994613 3760.30862675 -1263.75313017 3759.65671039 C-1269.04707625 3759.32539271 -1274.34111257 3758.99579111 -1279.63547897 3758.6712532 C-1414.73442588 3750.38157959 -1414.73442588 3750.38157959 -1457.54541016 3702.54663086 C-1463.78220012 3695.33746168 -1468.70047338 3687.54381657 -1473.25 3679.1875 C-1473.5912793 3678.56536621 -1473.93255859 3677.94323242 -1474.28417969 3677.30224609 C-1519.9699509 3592.9475135 -1522.0628065 3473.41862249 -1531.9375 3335.75 C-1531.99843842 3334.65725769 -1532.05937683 3333.56451538 -1532.12216187 3332.43865967 C-1537.12024707 3241.65114607 -1535.86459044 3150.73705477 -1505.44890976 2760.38381195 C-1505.06991296 2757.06491574 -1504.69314269 2753.74577314 -1504.31680298 2750.42657471 C-1501.22754992 2723.24156932 -1497.70746948 2696.18330186 -1493.25 2669.1875 C-1493.12652317 2668.43953785 -1493.00304634 2667.6915757 -1492.87582779 2666.92094803 C-1491.4924912 2658.55982385 -1490.08134047 2650.20347993 -1488.66064453 2641.84863281 C-1469.62923717 2529.92407442 -1453.07972213 2417.52130035 -1408.875 2038.875 C-1408.80095947 2037.89773956 -1408.72691895 2036.92047913 -1408.65063477 2035.91360474 C-1405.74082804 1996.76703293 -1404.88735382 1957.52057057 -1404.99205017 1918.27876663 C-1405.00018452 1915.05180107 -1405.0050978 1911.82484267 -1405.00939941 1908.59786987 C-1405.05841052 1876.58761578 -1405.37148995 1844.63136492 -1407.06640625 1812.65924072 C-1407.2627323 1808.94673334 -1407.45180718 1805.23389253 -1407.640625 1801.52099609 C-1411.70233264 1722.32865219 -1418.91477305 1643.37397441 -1428.81533146 1544.60391474 C-1429.16269823 1541.14675336 -1429.50975395 1537.68956078 -1429.85682583 1534.23236978 C-1430.29774641 1529.84076588 -1430.73891191 1525.44918661 -1431.18017578 1521.05761719 C-1431.2683919 1520.17964706 -1431.35660803 1519.30167693 -1431.44749737 1518.39710164 C-1432.40727317 1508.84732595 -1433.36984995 1499.29784578 -1434.340271 1489.74914551 C-1438.05092939 1453.23599654 -1441.6449408 1416.71768566 -1444.84720683 1380.15596795 C-1445.06453003 1377.67537775 -1445.28265796 1375.19485927 -1445.5008564 1372.71434593 C-1449.67685665 1325.143171 -1453.35043205 1277.44337048 -1455.1499939 1229.7175293 C-1455.25983177 1226.93876859 -1455.38588126 1224.16092635 -1455.51098633 1221.3828125 C-1456.44533359 1199.33120053 -1456.43744505 1177.27771505 -1456.43530273 1155.20996094 C-1456.4352219 1150.80334329 -1456.44211349 1146.39683054 -1456.45581055 1141.99023438 C-1456.57048581 1104.44934327 -1455.6542349 1067.04258593 -1452.4375 1029.625 C-1452.31152939 1028.12595123 -1452.31152939 1028.12595123 -1452.18301392 1026.59661865 C-1444.9805504 941.29845564 -1428.76165088 857.08712001 -1344.25 659.1875 C-1343.38834229 657.70564209 -1343.38834229 657.70564209 -1342.50927734 656.19384766 C-1332.72360347 639.41879047 -1322.20331609 623.21429269 -1311.25 607.1875 C-1310.40526123 605.9504834 -1310.40526123 605.9504834 -1309.54345703 604.68847656 C-1289.77484663 575.8851159 -1267.72585224 548.26770238 -1244.25 522.40234375 C-1242.45396471 520.41337498 -1240.69046697 518.40186806 -1238.9375 516.375 C-1231.00721736 507.2935473 -1222.75611754 498.56377391 -1214.13671875 490.13671875 C-1211.9350983 487.94388035 -1209.90059373 485.64845785 -1207.87890625 483.2890625 C-1204.33273536 479.19375085 -1200.4928143 475.52924233 -1196.5 471.875 C-1191.65802974 467.39550626 -1186.88525897 462.8810234 -1182.25 458.1875 C-1178.76931504 454.6706655 -1175.22841269 451.33051757 -1171.46484375 448.12109375 C-1169.13663662 446.08853197 -1166.87840339 443.99349929 -1164.62011719 441.8840332 C-1159.21407993 436.8348948 -1153.70100761 432.03222205 -1147.9296875 427.3984375 C-1145.11746685 425.0781505 -1142.43202737 422.65678866 -1139.75 420.1875 C-1134.4203211 415.2938174 -1128.88303512 410.72542156 -1123.25 406.1875 C-1121.98493201 405.15455767 -1120.7206572 404.12064342 -1119.45703125 403.0859375 C-1111.79232973 396.81616713 -1104.06946097 390.65055425 -1096.18359375 384.66015625 C-1093.9196694 382.93591487 -1091.66303555 381.20232406 -1089.40625 379.46875 C-1065.8279091 361.38589887 -1041.58123841 344.28189822 -1016.84057617 327.82763672 C-1014.18241393 326.05911615 -1011.5276002 324.28565042 -1008.87304688 322.51171875 C-993.09311253 311.98706481 -977.0995739 301.82540638 -960.875 292 C-960.29726837 291.64987854 -959.71953674 291.29975708 -959.1242981 290.93902588 C-936.43695564 277.19861558 -913.51631039 263.92629298 -890.25 251.1875 C-888.72947021 250.3529126 -888.72947021 250.3529126 -887.17822266 249.50146484 C-872.4937893 241.4511762 -857.67238212 233.68283154 -842.78564453 226.01416016 C-839.15290327 224.13733582 -835.52686461 222.24809364 -831.90234375 220.35546875 C-818.24908938 213.23292272 -804.52791369 206.30624644 -790.58691406 199.76025391 C-787.46791253 198.2902065 -784.35470295 196.80871128 -781.24317932 195.32293701 C-760.09210016 185.22442139 -738.79823061 175.49872801 -717.32824707 166.09771729 C-715.33125598 165.22308797 -713.3349758 164.34685596 -711.33886719 163.47021484 C-623.88910591 125.09395641 -534.14238498 89.68086364 -303.25 29.1875 C-302.32650757 29.00872314 -301.40301514 28.82994629 -300.45153809 28.64575195 C-231.64484922 15.36214219 -162.19158861 6.74622479 -92.25 2.5 C-91.25315186 2.43906158 -90.25630371 2.37812317 -89.22924805 2.31533813 C-59.4842056 0.52183623 -29.7899405 -0.02014413 0 0 Z M-449.59375 962.76953125 C-451.29685578 964.22761474 -453.00709274 965.67696852 -454.71875 967.125 C-462.2103029 973.47885829 -469.49513082 980.01623268 -476.671875 986.72265625 C-478.1873505 988.12934762 -479.71549257 989.52037287 -481.25 990.90625 C-488.22948453 997.22940943 -494.95561683 1003.78818153 -501.625 1010.4375 C-502.4694165 1011.27732422 -503.31383301 1012.11714844 -504.18383789 1012.98242188 C-508.49531385 1017.30457509 -512.6530386 1021.69512816 -516.63232422 1026.32470703 C-519.21226588 1029.29557255 -521.92553037 1032.13819043 -524.625 1035 C-529.27315533 1039.96723093 -533.69478536 1045.04326033 -537.94921875 1050.35546875 C-540.60910377 1053.62952078 -543.36271379 1056.8124769 -546.125 1060 C-552.06477614 1066.89096256 -557.70044526 1073.98044171 -563.25 1081.1875 C-563.84828613 1081.95980957 -564.44657227 1082.73211914 -565.06298828 1083.52783203 C-574.84046253 1096.15860694 -584.24364384 1108.99553422 -593.25 1122.1875 C-593.70568359 1122.85442871 -594.16136719 1123.52135742 -594.63085938 1124.20849609 C-597.55346984 1128.50287645 -600.42082212 1132.83104744 -603.25 1137.1875 C-603.70020508 1137.88069336 -604.15041016 1138.57388672 -604.61425781 1139.28808594 C-635.00194556 1186.29631846 -660.4859979 1236.43005082 -679.25 1289.1875 C-679.49063171 1289.86343201 -679.73126343 1290.53936401 -679.97918701 1291.23577881 C-688.36966925 1314.88916327 -695.33567814 1338.79990022 -701.25 1363.1875 C-701.41973328 1363.88576904 -701.58946655 1364.58403809 -701.76434326 1365.3034668 C-710.10699104 1399.78900703 -715.07101493 1434.87501752 -718.25 1470.1875 C-718.36859375 1471.47640137 -718.4871875 1472.76530273 -718.609375 1474.09326172 C-722.02210628 1513.06035564 -721.80362323 1553.12736107 -718.43035889 1592.09381104 C-718.23978517 1594.3060785 -718.05742851 1596.51894035 -717.87548828 1598.73193359 C-714.63636405 1637.55662074 -708.94916597 1676.20289933 -700.25 1714.1875 C-700.10044861 1714.84437805 -699.95089722 1715.5012561 -699.79681396 1716.17803955 C-682.60090708 1791.46629592 -651.97775792 1862.72413043 -611.25 1928.1875 C-610.14312368 1929.98170576 -609.03634447 1931.77597144 -607.9296875 1933.5703125 C-601.42154131 1944.06069774 -594.49876609 1954.19679967 -587.25 1964.1875 C-586.69554199 1964.95594238 -586.14108398 1965.72438477 -585.56982422 1966.51611328 C-576.72004129 1978.76293397 -567.45404897 1990.58548222 -557.75390625 2002.16796875 C-543.59863093 2019.16901866 -532.10827401 2036.82044427 -533.4609375 2059.765625 C-534.98272358 2073.49041263 -539.83616571 2085.88963691 -545.63552856 2098.33074951 C-547.19638574 2101.68322849 -548.72700641 2105.04955555 -550.26171875 2108.4140625 C-550.58704086 2109.12583649 -550.91236298 2109.83761047 -551.24754333 2110.57095337 C-555.02863277 2118.8608418 -558.67797378 2127.20753242 -562.3125 2135.5625 C-562.66090942 2136.36309845 -563.00931885 2137.1636969 -563.36828613 2137.98855591 C-576.73769531 2168.73156341 -589.88665235 2199.57068 -602.97705078 2230.43334961 C-606.6987503 2239.20467822 -610.4382053 2247.96810546 -614.19921875 2256.72265625 C-614.61203598 2257.68392929 -615.02485321 2258.64520233 -615.45018005 2259.63560486 C-617.44822217 2264.28738077 -619.44838713 2268.93822609 -621.4519043 2273.58764648 C-622.17372609 2275.26673822 -622.89549014 2276.94585478 -623.6171875 2278.625 C-624.10350899 2279.75041954 -624.10350899 2279.75041954 -624.59965515 2280.89857483 C-628.70872122 2289.05452206 -628.70872122 2289.05452206 -629.875 2297.625 C-627.28301785 2300.11729053 -624.78066263 2299.91775251 -621.25 2300.1875 C-618.32366984 2299.86514203 -615.49615472 2299.22103154 -612.62890625 2298.56298828 C-610.83557246 2298.1790034 -609.04140912 2297.79887924 -607.24658203 2297.42193604 C-606.28036926 2297.21884071 -605.31415649 2297.01574539 -604.31866455 2296.80649567 C-598.80436464 2295.69417867 -593.26024276 2294.75858173 -587.71484375 2293.81591797 C-585.88345809 2293.50358971 -585.88345809 2293.50358971 -584.01507473 2293.18495178 C-580.75572518 2292.6305688 -577.49603587 2292.07823842 -574.23619533 2291.52675152 C-570.71483307 2290.93020692 -567.19411355 2290.32989351 -563.6733551 2289.72979736 C-558.42553852 2288.83556623 -553.17759705 2287.94207661 -547.92945987 2287.04972887 C-531.33493588 2284.22803081 -514.74295202 2281.39150119 -498.15234375 2278.546875 C-496.96645727 2278.34355332 -496.96645727 2278.34355332 -495.75661349 2278.13612413 C-465.7519827 2272.99058867 -435.77066683 2267.72271197 -405.8125 2262.3125 C-404.79178909 2262.12830631 -403.77107819 2261.94411263 -402.71943665 2261.75433731 C-383.19900838 2258.23069729 -363.68485074 2254.6765912 -344.19921875 2250.96484375 C-342.31107201 2250.60561829 -342.31107201 2250.60561829 -340.38478088 2250.23913574 C-334.95352299 2249.20337543 -329.52445948 2248.15844228 -324.09985352 2247.08837891 C-305.32749219 2243.42255333 -286.37940464 2240.83253788 -267.25 2240.1875 C-265.73986328 2240.125625 -265.73986328 2240.125625 -264.19921875 2240.0625 C-233.04653331 2239.40231064 -204.91440273 2247.01893254 -175.78953552 2256.97373962 C-131.27100203 2272.14543893 -85.05838641 2279.71441398 -38.25 2283.1875 C-36.95562012 2283.29046387 -35.66124023 2283.39342773 -34.32763672 2283.49951172 C54.95817671 2290.41979088 145.94909945 2282.16602102 400.75 2184.1875 C402.10206543 2183.39472656 402.10206543 2183.39472656 403.48144531 2182.5859375 C441.99905337 2159.89466787 478.00416113 2133.63017943 512.01904297 2104.65966797 C513.82348818 2103.12499877 515.63237519 2101.59566579 517.44140625 2100.06640625 C525.51299837 2093.22542917 525.51299837 2093.22542917 533.08959961 2085.84692383 C534.67636299 2084.2610937 536.31741979 2082.83222359 538.03515625 2081.390625 C544.0908813 2076.12444561 549.69669085 2070.38971523 555.35913086 2064.70874023 C557.3079687 2062.75454376 559.26209272 2060.80574853 561.21679688 2058.85742188 C569.523524 2050.55668438 569.523524 2050.55668438 577.36401367 2041.81860352 C579.53706902 2039.2612347 581.83771507 2036.83056866 584.125 2034.375 C588.41430703 2029.73192811 592.47678619 2024.95308383 596.44140625 2020.02734375 C598.52090653 2017.4693121 600.64052282 2014.95607206 602.78442383 2012.45239258 C608.68946851 2005.55067253 614.30779315 1998.4595284 619.75 1991.1875 C620.26933105 1990.49414551 620.78866211 1989.80079102 621.32373047 1989.08642578 C645.13918328 1957.20500939 666.51918304 1924.04685506 685.27929688 1888.93652344 C686.24719867 1887.12733117 687.21973686 1885.32061045 688.19726562 1883.51660156 C726.04461421 1813.6347245 750.69669616 1736.43793532 772.953125 1558.37109375 C772.96014597 1556.79604057 772.9672328 1555.22098767 772.97438049 1553.64593506 C772.99378695 1548.63895256 772.99881463 1543.63201632 773 1538.625 C773.00044186 1537.77220585 773.00088371 1536.9194117 773.00133896 1536.0407753 C773.00803936 1511.39049535 772.88035803 1486.87815415 770.00323486 1462.36401367 C769.73555581 1460.06335447 769.48179961 1457.76143101 769.22998047 1455.45898438 C760.96017425 1380.56978687 741.82802992 1307.28592574 711.75 1238.1875 C711.28561523 1237.11902832 710.82123047 1236.05055664 710.34277344 1234.94970703 C698.9074675 1208.87534735 686.12635408 1183.23334725 671.37451172 1158.87646484 C669.75428604 1156.19459445 668.15743092 1153.50006065 666.56640625 1150.80078125 C660.97913216 1141.34824152 655.20093268 1132.07233009 648.99755859 1123.01171875 C647.71604784 1121.1378541 646.44548035 1119.25688397 645.17578125 1117.375 C634.65928014 1101.85681921 623.49303706 1086.798566 611.75 1072.1875 C611.00492188 1071.259375 610.25984375 1070.33125 609.4921875 1069.375 C601.24149817 1059.20210706 592.70745586 1049.25536278 583.90234375 1039.55859375 C582.40761439 1037.91194997 580.92120285 1036.25773264 579.44140625 1034.59765625 C575.54499775 1030.22815936 571.59122311 1025.98367794 567.4140625 1021.8828125 C565.69231585 1020.12873258 564.09628746 1018.30613982 562.5 1016.4375 C556.10487147 1009.0363962 549.08111374 1002.20936692 541.64453125 995.86328125 C539.59198069 994.04772622 537.67253994 992.13990464 535.75 990.1875 C531.91445447 986.3075273 527.89755921 982.72892986 523.75 979.1875 C522.69635615 978.28155048 521.64299323 977.37527417 520.58984375 976.46875 C517.58307348 973.88280043 514.56963224 971.30476009 511.55371094 968.72949219 C509.83795684 967.26269428 508.12582907 965.79175967 506.4140625 964.3203125 C499.60311124 958.48572763 492.64687183 952.89798338 485.48632812 947.49853516 C483.67899644 946.13388792 481.87848186 944.76055128 480.078125 943.38671875 C456.03334602 925.11146307 430.85399537 908.37282936 404.75 893.1875 C403.88004395 892.68041504 403.01008789 892.17333008 402.11376953 891.65087891 C334.43062344 852.37582953 260.94867783 824.04443643 45 791.625 C44.00867065 791.60448578 43.01734131 791.58397156 41.99597168 791.56283569 C35.24752099 791.42479242 28.49888995 791.30186082 21.75 791.1875 C21.01088379 791.17440796 20.27176758 791.16131592 19.51025391 791.14782715 C-58.40894285 789.78942275 -135.86543326 805.47759971 -449.59375 962.76953125 Z " fill="#4599D0" transform="translate(2092.25,189.8125)"/>
<path d="M0 0 C23.84844724 18.66400219 42.455709 41.68179752 57.265625 67.96875 C57.65427734 68.6503418 58.04292969 69.33193359 58.44335938 70.03417969 C82.9956509 113.4652461 95.47834601 163.95950586 95.515625 213.71875 C95.51629974 214.53311523 95.51697449 215.34748047 95.51766968 216.18652344 C95.46848094 253.74281403 88.36585171 297.04543755 62.265625 325.96875 C61.65460937 326.72027344 61.04359375 327.47179688 60.4140625 328.24609375 C48.88216807 342.12707779 31.2944139 352.65092359 13.265625 354.96875 C-17.85789344 357.63166672 -44.77187706 347.38871782 -68.53857422 327.45556641 C-71.87068274 324.55779337 -75.07109101 321.54057208 -78.22119141 318.44677734 C-79.71090836 316.99167143 -81.22501531 315.56674207 -82.74609375 314.14453125 C-129.91451398 269.37567846 -155.70382909 195.93482747 -157.94116211 132.15820312 C-158.05849425 127.34475232 -158.06864838 122.53335157 -158.046875 117.71875 C-158.04505219 116.87290344 -158.04322937 116.02705688 -158.04135132 115.15557861 C-157.99232557 101.57879948 -157.36578777 88.32349073 -154.734375 74.96875 C-154.56276855 74.08670898 -154.39116211 73.20466797 -154.21435547 72.29589844 C-149.33290361 48.08494418 -140.54795105 25.1668864 -124.734375 5.96875 C-124.10015625 5.17082031 -123.4659375 4.37289063 -122.8125 3.55078125 C-89.99899786 -35.83898061 -36.80006083 -27.33718805 0 0 Z " fill="#3A3A3C" transform="translate(2190.734375,1527.03125)"/>
<path d="M0 0 C27.14638116 -1.05289505 50.05424605 13.0772568 69.35546875 30.8046875 C70.18820312 31.58199219 71.0209375 32.35929687 71.87890625 33.16015625 C72.67039062 33.88589844 73.461875 34.61164063 74.27734375 35.359375 C87.22965946 47.70389596 97.03906814 62.7093281 105.87890625 78.16015625 C106.27561523 78.84513184 106.67232422 79.53010742 107.08105469 80.23583984 C120.98831277 104.46571069 129.57439147 131.83079366 134.87890625 159.16015625 C135.04551758 160.00336426 135.21212891 160.84657227 135.38378906 161.71533203 C137.94500345 175.35127985 138.18685052 189.01807714 138.25390625 202.84765625 C138.26185211 203.7041275 138.26979797 204.56059875 138.27798462 205.44302368 C138.51785889 239.10887329 130.96401532 277.01918539 106.91796875 302.21484375 C93.0794042 315.41715246 75.82058789 323.66856821 56.46875 323.3046875 C28.66322959 321.75294654 6.46040009 307.05565368 -13.12109375 288.16015625 C-13.67796875 287.6288208 -14.23484375 287.09748535 -14.80859375 286.55004883 C-19.122665 282.35204324 -22.87527586 277.90140393 -26.49609375 273.09765625 C-27.06062256 272.35016113 -27.62515137 271.60266602 -28.20678711 270.83251953 C-51.25949932 240.0058749 -65.6573782 204.28781639 -73.43359375 166.72265625 C-73.58103027 166.01584717 -73.7284668 165.30903809 -73.88037109 164.58081055 C-76.66235415 150.10830198 -77.50354605 135.5506705 -77.43359375 120.84765625 C-77.43177094 120.04410706 -77.42994812 119.24055786 -77.42807007 118.41265869 C-77.38009764 105.80138019 -76.835519 93.5194542 -74.12109375 81.16015625 C-73.94416992 80.34998047 -73.76724609 79.53980469 -73.58496094 78.70507812 C-68.48416999 56.16997754 -59.80736738 35.4566775 -43.12109375 19.16015625 C-42.39277344 18.41121094 -41.66445312 17.66226562 -40.9140625 16.890625 C-29.94678372 6.24890552 -14.99045658 1.1318761 0 0 Z " fill="#3A3A3C" transform="translate(1726.12109375,1660.83984375)"/>
</svg>
